<svg xmlns="http://www.w3.org/2000/svg" width="64" height="64" id="ballon"><path fill="#ff5642" d="M20.727 17.113a6.728 6.728 0 0 0-3.862 1.218 6.736 6.736 0 0 0-1.494 1.434v.003a6.75 6.75 0 0 0-.97 1.778c-.232.635-.368 1.573-.4 2.255 0 .356.042.785.115 1.254.026.17.075.36.11.54.064.322.127.64.219.989.064.244.147.492.224.744.089.292.175.577.281.874.105.295.223.58.345.876.115.28.233.552.363.826.45.955.97 1.862 1.576 2.623.336.423.696.794 1.076 1.107.38.314.779.561 1.2.73a2.02 2.02 0 0 0-.145.12 2.02 2.02 0 0 0-.035.032 2.02 2.02 0 0 0-.107.11 2.02 2.02 0 0 0-.035.04 2.02 2.02 0 0 0-.297.468 2.02 2.02 0 0 0-.021.047 2.02 2.02 0 0 0-.053.135 2.02 2.02 0 0 0-.029.102 2.02 2.02 0 0 0-.02.071 2.02 2.02 0 0 0-.03.145 2.02 2.02 0 0 0-.01.055 2.02 2.02 0 0 0-.013.129 2.02 2.02 0 0 0-.006.087 2.02 2.02 0 0 0-.002.066h4.04a2.02 2.02 0 0 0-.039-.403 2.02 2.02 0 0 0-.05-.195 2.02 2.02 0 0 0-.158-.37 2.02 2.02 0 0 0-.105-.174 2.02 2.02 0 0 0-.26-.308 2.02 2.02 0 0 0-.15-.134 2.02 2.02 0 0 0-.003 0 2.02 2.02 0 0 0-.031-.024l.005-.003a4.09 4.09 0 0 0 .608-.307c.2-.123.394-.262.584-.419.19-.156.375-.326.555-.513.827-.858 1.527-2.003 2.102-3.228.125-.265.237-.529.35-.8.124-.3.245-.592.352-.894.106-.296.193-.58.282-.87.077-.253.16-.501.223-.745.092-.349.155-.667.219-.99.035-.18.084-.37.11-.539a8.45 8.45 0 0 0 .116-1.254c-.032-.682-.169-1.62-.4-2.255a6.765 6.765 0 0 0-.97-1.778c-.098-.129-.217-.242-.324-.363-.12-.137-.231-.28-.363-.408a6.725 6.725 0 0 0-4.673-1.884Z"></path><path fill="#ed4b30" d="M20.727 17.113c-.45 0-.896.063-1.339.153.219.045.439.083.653.15a6.722 6.722 0 0 1 2.667 1.578c.132.127.243.271.363.408.108.121.226.235.324.363a6.718 6.718 0 0 1 .97 1.778c.232.635.368 1.573.4 2.255 0 .356-.042.786-.115 1.255-.026.169-.075.359-.11.54-.064.321-.128.64-.219.988-.064.244-.147.492-.224.745-.089.29-.175.574-.281.87-.108.302-.228.594-.353.895-.112.27-.224.534-.35.8-.574 1.224-1.275 2.369-2.102 3.228-.18.186-.365.356-.555.513a4.117 4.117 0 0 1-1.076.668c.044.02.085.046.13.063a2.02 2.02 0 0 0-.124.103 2.02 2.02 0 0 1 .057.052 2.02 2.02 0 0 1 .26.308 2.02 2.02 0 0 1 .106.174 2.02 2.02 0 0 1 .158.37 2.02 2.02 0 0 1 .05.195 2.02 2.02 0 0 1 .04.403h-1.35a2.02 2.02 0 0 0 0 .003h4.04a2.02 2.02 0 0 0-.039-.403 2.02 2.02 0 0 0-.05-.195 2.02 2.02 0 0 0-.158-.37 2.02 2.02 0 0 0-.105-.174 2.02 2.02 0 0 0-.26-.308 2.02 2.02 0 0 0-.15-.134 2.02 2.02 0 0 0-.003 0 2.02 2.02 0 0 0-.031-.024l.005-.002a4.09 4.09 0 0 0 .608-.308c.2-.123.394-.262.584-.419.19-.156.375-.326.555-.513.827-.858 1.527-2.003 2.102-3.228.125-.265.237-.529.35-.8.124-.3.245-.592.352-.894.106-.296.193-.58.282-.87.077-.253.16-.501.223-.745.092-.349.155-.667.219-.99.035-.18.084-.37.11-.539a8.45 8.45 0 0 0 .116-1.254c-.032-.682-.169-1.62-.4-2.255a6.765 6.765 0 0 0-.97-1.778c-.098-.129-.217-.242-.324-.363-.12-.137-.231-.28-.363-.408a6.725 6.725 0 0 0-4.673-1.884Z"></path><path fill="none" stroke="#3d484f" stroke-linecap="round" stroke-linejoin="round" stroke-width=".999" d="M22.74 33.95h-4.03c1.734 0 4.335 2.964 2.6 6.823-1.733 3.859-2.004 3.535-2.004 5.725 0 2.191 2.872 4.782 2.872 4.782"></path><path fill="#54d186" d="M42.273 17.113a6.732 6.732 0 0 0-6.33 4.433c-.23.635-.367 1.573-.4 2.255 0 2.695 2.16 9.22 5.51 10.562a2.02 2.02 0 0 0-.8 1.608h4.04a2.02 2.02 0 0 0-.799-1.608C46.844 33.021 49 26.496 49 23.801c-.032-.682-.168-1.62-.4-2.255a6.73 6.73 0 0 0-6.327-4.433z"></path><path fill="#46aa6f" d="M42.273 17.113c-.45 0-.898.063-1.341.153.886.18 1.747.524 2.52 1.065a6.73 6.73 0 0 1 2.465 3.215c.231.635.368 1.573.4 2.255 0 2.662-2.105 9.052-5.385 10.502.04.018.08.044.12.06a2.02 2.02 0 0 0-.12.103 2.02 2.02 0 0 1 .678 1.505h2.683a2.02 2.02 0 0 0-.799-1.608C46.844 33.021 49 26.496 49 23.801c-.032-.682-.168-1.62-.4-2.255a6.73 6.73 0 0 0-6.327-4.433z"></path><path fill="none" stroke="#3d484f" stroke-linecap="round" stroke-linejoin="round" stroke-width=".999" d="M40.273 33.95h4.03c-1.734 0-4.335 2.964-2.601 6.823 1.733 3.859 2.004 3.535 2.004 5.725 0 2.191-2.871 4.782-2.871 4.782"></path><path fill="#f5f8fa" d="M31.49 11.552a8.062 8.062 0 0 0-7.582 5.309c-.277.76-.44 1.887-.479 2.704 0 3.23 2.584 11.048 6.598 12.657a2.421 2.421 0 0 0-.957 1.926h4.843a2.421 2.421 0 0 0-.958-1.926c4.014-1.609 6.598-9.428 6.598-12.657-.038-.817-.202-1.943-.479-2.704a8.062 8.062 0 0 0-7.584-5.309z"></path><path fill="#eceff1" d="M31.49 11.552c-.446 0-.89.047-1.331.12 1.16.194 2.29.633 3.296 1.337 1.39.973 2.4 2.33 2.954 3.852.277.76.44 1.887.48 2.704 0 3.23-2.585 11.048-6.599 12.657a2.421 2.421 0 0 1 .958 1.925h2.665a2.421 2.421 0 0 0-.958-1.925c4.014-1.61 6.598-9.428 6.598-12.657-.038-.817-.202-1.943-.479-2.704a8.062 8.062 0 0 0-7.584-5.31z"></path><path fill="none" stroke="#3d484f" stroke-linecap="round" stroke-linejoin="round" stroke-width=".999" d="M29.095 31.727h4.828c-2.077 0-5.194 3.55-3.116 8.175 2.077 4.624 2.402 4.235 2.402 6.86s-3.441 5.73-3.441 5.73"></path></svg>