<svg xmlns="http://www.w3.org/2000/svg" viewBox="0 0 64 64" id="ebook"><path fill="#4aa5ff" d="M53,9.5H11c-2.20911,0-4,1.79083-4,4V45.5c0,2.20911,1.79089,4,4,4H53c2.20917,0,4-1.79089,4-4V13.5c0-2.20917-1.79083-4-4-4Z"></path><path fill="#21257c" d="M53,50.5H11c-2.75684,0-5-2.24316-5-5V13.5c0-2.75684,2.24316-5,5-5H53c2.75684,0,5,2.24316,5,5V45.5c0,2.75684-2.24316,5-5,5ZM11,10.5c-1.6543,0-3,1.3457-3,3V45.5c0,1.6543,1.3457,3,3,3H53c1.6543,0,3-1.3457,3-3V13.5c0-1.6543-1.3457-3-3-3H11Z"></path><rect width="44" height="34" x="10" y="12.5" fill="#e6f3ff" rx="1" ry="1"></rect><rect width="34" height="19" x="15" y="20" fill="#4aa5ff" rx="2" ry="2"></rect><path fill="#21257c" d="M47,40H17c-1.6543,0-3-1.3457-3-3v-15c0-1.6543,1.3457-3,3-3h30c1.6543,0,3,1.3457,3,3v15c0,1.6543-1.3457,3-3,3ZM17,21c-.55127,0-1,.44824-1,1v15c0,.55176,.44873,1,1,1h30c.55127,0,1-.44824,1-1v-15c0-.55176-.44873-1-1-1H17Z"></path><path fill="#4aa5ff" d="M58.5,49.5h-23.5c-.10073,3.95773-5.90047,3.95496-6,0H5.5c-3.28221,.07784-3.30931,4.91427,.00008,5-.00008,0,52.99992,0,52.99992,0,3.27877-.07656,3.31224-4.91378,0-5Z"></path><path fill="#21257c" d="M58.5,55.5H5.5c-1.92969,0-3.5-1.57031-3.5-3.5s1.57031-3.5,3.5-3.5H29c.55225,0,1,.44727,1,1,0,1.10254,.89697,2,2,2s2-.89746,2-2c0-.55273,.44775-1,1-1h23.5c4.60921,.14006,4.63836,6.84974,0,7ZM5.5,50.5c-1.95062,.02907-1.98786,2.96323,.00008,2.99999-.00008,0,52.99992,0,52.99992,0,1.95482-.03023,1.98445-2.96357-.00008-3,.00008,0-22.62639,0-22.62639,0-1.01677,3.96066-6.73159,3.95827-7.74707,0H5.5Z"></path><path fill="#e6f3ff" d="M45,33c-1.43947,.01923-3.3908,.22298-5.57143,1-3.70349,1.31965-6.15729,3.61188-7.42857,5V23c1.27128-1.38812,3.72508-3.68035,7.42857-5,2.18063-.77702,4.13196-.98077,5.57143-1v16Z"></path><path fill="#21257c" d="M32,40c-.53745,.00657-1.00987-.45882-.99999-1.00001-.00001,0-.00001-15.99999-.00001-15.99999,0-.25,.09375-.49121,.2627-.67578,2.2041-2.40527,4.91211-4.22656,7.83057-5.2666,1.89209-.67383,3.875-1.03027,5.89307-1.05762,.2583,.01855,.52588,.09961,.71582,.28809,.19043,.1875,.29785,.44434,.29785,.71191v16c0,.54688-.43945,.99219-.98633,1-1.79785,.02441-3.56396,.34082-5.24902,.94238-2.61279,.93066-5.04248,2.56738-7.02734,4.7334-.19336,.21094-.4624,.32422-.7373,.32422Zm1-16.60547v13.24316c3.12224-2.6963,6.92693-4.32942,11-4.59766v-13.99512c-4.20696,.31547-8.0262,2.24269-11,5.34961Zm12,9.60547h0Z"></path><path fill="#e6f3ff" d="M19,33c1.43947,.01923,3.3908,.22298,5.57143,1,3.70349,1.31965,6.15729,3.61188,7.42857,5V23c-1.27128-1.38812-3.72508-3.68035-7.42857-5-2.18063-.77702-4.13196-.98077-5.57143-1v16Z"></path><path fill="#21257c" d="M32,40c-.2749,0-.54395-.11328-.7373-.32422-3.23453-3.52575-7.56765-5.61844-12.27637-5.67578-.54687-.00782-.98633-.45313-.98633-1V17c0-.26758,.10742-.52441,.29785-.71191,.18994-.18848,.41699-.26855,.71582-.28809,2.01807,.02734,4.00098,.38379,5.89355,1.05762,2.91797,1.04004,5.62598,2.86133,7.83008,5.2666,.16895,.18457,.2627,.42578,.2627,.67578v16c.0093,.53995-.46187,1.00822-1,1Zm-12-7.95996c4.07305,.26819,7.87744,1.90107,11,4.59766v-13.24316c-2.97387-3.10709-6.79331-5.03434-11-5.34961v13.99512Z"></path><path fill="#4aa5ff" d="M49.4303,31.97725l-10.62074-3.54029c-1.15727-.38571-2.25831,.71533-1.87259,1.87259l3.54029,10.62074c.34795,1.04399,1.67306,1.3568,2.4512,.57866l1.44663-1.44663,2.9845,2.9845c.57809,.57809,1.51551,.57809,2.0936,0l2.0936-2.0936c.57815-.57815,.57809-1.51551,0-2.0936l-2.9845-2.9845,1.44663-1.44663c.7782-.7782,.46539-2.10331-.5786-2.45126Z"></path><path fill="#21257c" d="M48.40625,44.48047c-.6626,0-1.28564-.25781-1.75391-.72656l-2.27734-2.27734-.73975,.73926c-1.22315,1.30315-3.59549,.74554-4.10691-.96882-.00002,.00007-3.54006-10.62103-3.54006-10.62103-.69001-1.85794,1.27811-3.82971,3.13776-3.13763-.00006-.00007,10.62054,3.54095,10.62054,3.54095,1.71291,.51086,2.27414,2.88288,.96917,4.10646,.00007-.00001-.73919,.73925-.73919,.73925l2.27734,2.27734c.96237,.92405,.96244,2.5838-.00003,3.50781,.00003,0-2.09372,2.09375-2.09372,2.09375-.46826,.46875-1.09131,.72656-1.75391,.72656Zm-4.03125-5.41797c.25586,0,.51172,.09766,.70703,.29297l2.98438,2.98438c.1875,.1875,.49219,.1875,.67969,0l2.09375-2.09375c.1875-.1875,.1875-.49219,0-.67969l-2.98438-2.98438c-.39062-.39062-.39062-1.02344,0-1.41406l1.44629-1.44629c.2544-.29361,.16739-.64876-.1875-.79492l-.00049-.00098-10.62061-3.54102c-.25195-.08398-.42871,.05273-.49121,.11621-.06299,.06348-.20117,.23828-.11621,.49219l3.54004,10.62109c.15361,.36283,.50183,.43998,.79492,.18754,.69112-.60794,1.54068-1.81763,2.1543-1.7393Z"></path></svg>