<svg xmlns="http://www.w3.org/2000/svg" width="32" height="32" id="employee"><path fill="#25b39e" d="M25.453 6c.676 0 1.193.36 1.511.857.338.477.517 1.094.696 1.73.338 1.273.596 2.644 1.133 3.201l.318.319-.397.257a9.232 9.232 0 0 1-2.288 1.015c-.179.06-.198.159-.219.318.02.597.259 1.054.657 1.491.417.438.974.835 1.57 1.234.597.397 1.234.815 1.71 1.312.498.497.856 1.133.856 1.889V20H18.015v-.377c0-.756.378-1.373.855-1.87.498-.496 1.094-.915 1.69-1.332.597-.398 1.174-.796 1.592-1.233.397-.438.636-.895.636-1.472 0-.24-.1-.318-.178-.358-.736-.199-1.472-.537-2.208-1.014l-.378-.239.318-.318c.577-.596.855-1.969 1.253-3.241.199-.636.418-1.253.796-1.73A1.993 1.993 0 0 1 24.02 6h1.432z"></path><path fill="#f05542" d="M21.66 7c.773 0 1.364.41 1.727.979.387.545.591 1.25.795 1.977.387 1.455.682 3.023 1.296 3.66l.364.363-.455.295c-.864.523-1.727.91-2.614 1.159-.205.067-.227.182-.25.363.022.683.295 1.205.75 1.705.477.5 1.113.954 1.795 1.41.682.453 1.41.931 1.955 1.499.568.568.977 1.295.977 2.16V23H13.16v-.43c0-.865.432-1.57.978-2.138.568-.568 1.25-1.045 1.932-1.523.681-.454 1.34-.91 1.818-1.409.454-.5.727-1.022.727-1.682 0-.273-.114-.364-.204-.409-.84-.227-1.682-.614-2.523-1.16l-.432-.272.364-.363c.66-.682.977-2.25 1.432-3.704.227-.727.477-1.432.909-1.978A2.278 2.278 0 0 1 20.024 7h1.636z"></path><path fill="#25b39e" d="M6.547 6c-.676 0-1.193.36-1.511.857-.338.477-.517 1.094-.696 1.73-.338 1.273-.596 2.644-1.133 3.201l-.318.319.397.257a9.232 9.232 0 0 0 2.287 1.015c.18.06.2.159.22.318-.02.597-.259 1.054-.657 1.491-.417.438-.974.835-1.57 1.234-.597.397-1.234.815-1.71 1.312C1.357 18.23 1 18.867 1 19.623V20H13.985v-.377c0-.756-.378-1.373-.855-1.87-.498-.496-1.094-.915-1.69-1.332-.597-.398-1.174-.796-1.592-1.233-.397-.438-.636-.895-.636-1.472 0-.24.1-.318.178-.358.736-.199 1.472-.537 2.208-1.014l.378-.239-.318-.318c-.577-.596-.856-1.969-1.253-3.241-.199-.636-.418-1.253-.796-1.73A1.993 1.993 0 0 0 7.98 6H6.547z"></path><path fill="#f05542" d="M10.34 7c-.773 0-1.364.41-1.727.979-.387.545-.591 1.25-.795 1.977-.387 1.455-.682 3.023-1.296 3.66l-.364.363.455.295c.864.523 1.727.91 2.614 1.159.205.067.227.182.25.363-.022.683-.295 1.205-.75 1.705-.477.5-1.113.954-1.795 1.41-.682.453-1.41.931-1.955 1.499C4.41 20.978 4 21.705 4 22.57V23h14.84v-.43c0-.865-.432-1.57-.978-2.138-.568-.568-1.25-1.045-1.932-1.523-.681-.454-1.34-.91-1.818-1.409-.454-.5-.727-1.022-.727-1.682 0-.273.114-.364.204-.409.84-.227 1.682-.614 2.523-1.16l.432-.272-.364-.363c-.66-.682-.977-2.25-1.432-3.704-.227-.727-.477-1.432-.909-1.978A2.278 2.278 0 0 0 11.976 7H10.34z"></path><path fill="#2b4255" d="M14.785 8c-.87 0-1.534.462-1.943 1.101-.435.614-.665 1.407-.895 2.225-.434 1.637-.767 3.4-1.457 4.116l-.409.41.511.33c.972.59 1.944 1.024 2.94 1.305.231.077.257.205.283.409-.025.768-.333 1.355-.844 1.918-.537.562-1.253 1.073-2.02 1.586-.767.51-1.586 1.047-2.199 1.686-.64.64-1.1 1.457-1.1 2.43V26h16.695v-.485c0-.972-.486-1.764-1.1-2.404-.639-.638-1.406-1.176-2.173-1.713-.767-.511-1.508-1.023-2.045-1.585-.511-.563-.818-1.15-.818-1.893 0-.307.128-.41.229-.46.946-.255 1.893-.69 2.839-1.304l.486-.306-.41-.41c-.741-.766-1.1-2.53-1.61-4.167-.256-.818-.538-1.61-1.023-2.224A2.563 2.563 0 0 0 16.625 8h-1.84z"></path></svg>