<svg xmlns="http://www.w3.org/2000/svg" xmlns:xlink="http://www.w3.org/1999/xlink" viewBox="0 0 64 64" id="library"><defs><linearGradient id="a" x1="15" x2="15" y1="51" y2="19" gradientUnits="userSpaceOnUse"><stop offset="0" stop-color="#54a5ff"></stop><stop offset="1" stop-color="#8ad3fe"></stop></linearGradient><linearGradient id="b" x1="43" x2="43" y1="51" y2="16" gradientUnits="userSpaceOnUse"><stop offset="0" stop-color="#fe9661"></stop><stop offset="1" stop-color="#ffb369"></stop></linearGradient><linearGradient id="c" x1="27.5" x2="27.5" y2="9" xlink:href="#a"></linearGradient></defs><rect width="50" height="6" x="7" y="51" fill="#9db8d3" rx="2" ry="2"></rect><path fill="url(#a)" d="M12 19h6a2 2 0 0 1 2 2v30H10V21a2 2 0 0 1 2-2Z"></path><path fill="#8ad3fe" d="M32 22h4a2 2 0 0 1 2 2v27h-8V24a2 2 0 0 1 2-2Z"></path><path fill="#ffb369" d="M50 22h2a2 2 0 0 1 2 2v27h-6V24a2 2 0 0 1 2-2Z"></path><path fill="url(#b)" d="M40 16h6a2 2 0 0 1 2 2v33H38V18a2 2 0 0 1 2-2Z"></path><path fill="#eb7f58" d="M22 7h1a2 2 0 0 1 2 2v42h-5V9a2 2 0 0 1 2-2Z"></path><path fill="url(#c)" d="M27 9h1a2 2 0 0 1 2 2v40h-5V11a2 2 0 0 1 2-2Z"></path><circle cx="15" cy="37" r="3" fill="#d7e9f7"></circle><path fill="#8ad3fe" d="M17 44h-4a1 1 0 0 1 0-2h4a1 1 0 0 1 0 2zm0 4h-4a1 1 0 0 1 0-2h4a1 1 0 0 1 0 2z"></path><path fill="#ffb369" d="M20 38h5v6h-5z"></path><rect width="4" height="22" x="41" y="23" fill="#eb7f58" rx="2" ry="2"></rect><path fill="#d7e9f7" d="M34 47a1 1 0 0 1-1-1V26a1 1 0 0 1 2 0v20a1 1 0 0 1-1 1Z"></path></svg>