<svg width="235" height="59" viewBox="0 0 235 59" fill="none" xmlns="http://www.w3.org/2000/svg">
<path d="M147.896 58.76C145.165 58.76 142.84 58.1413 140.92 56.904C139 55.7093 138.04 53.9813 138.04 51.72C138.04 50.0987 138.424 48.9467 139.192 48.264C139.96 47.624 140.643 47.304 141.24 47.304C141.581 47.304 141.88 47.4107 142.136 47.624C142.435 47.88 142.755 48.2427 143.096 48.712C143.651 49.3947 144.568 50.0987 145.848 50.824C147.128 51.592 148.813 51.976 150.904 51.976C153.165 51.976 155 51.4853 156.408 50.504C157.859 49.5227 158.584 48.136 158.584 46.344C158.584 44.936 158.179 43.8267 157.368 43.016C156.6 42.2053 155.725 41.5867 154.744 41.16C153.379 40.648 151.843 40.2853 150.136 40.072C149.795 40.0293 149.496 39.944 149.24 39.816C148.984 39.6453 148.749 39.304 148.536 38.792C148.152 37.9387 147.96 37.0853 147.96 36.232C147.96 35.7627 148.088 35.3787 148.344 35.08C148.6 34.7813 148.941 34.5253 149.368 34.312C150.221 33.928 151.181 33.4373 152.248 32.84C153.357 32.2 154.296 31.4107 155.064 30.472C155.875 29.5333 156.28 28.3813 156.28 27.016C156.28 25.4373 155.725 24.3493 154.616 23.752C153.549 23.112 152.333 22.792 150.968 22.792C149.603 22.792 148.365 23.0267 147.256 23.496C146.147 23.9227 145.293 24.3067 144.696 24.648C143.928 25.16 143.352 25.416 142.968 25.416C142.371 25.416 141.944 25.096 141.688 24.456C141.432 23.816 141.304 23.2187 141.304 22.664C141.304 21.9387 141.496 21.2347 141.88 20.552C142.307 19.8267 143.011 19.144 143.992 18.504C145.357 17.5227 146.787 16.8613 148.28 16.52C149.816 16.1787 151.267 16.008 152.632 16.008C155.789 16.008 158.243 16.7973 159.992 18.376C161.741 19.912 162.616 21.9387 162.616 24.456C162.616 26.5893 162.019 28.5733 160.824 30.408C159.629 32.2427 158.2 33.672 156.536 34.696C158.755 35.2933 160.461 36.4027 161.656 38.024C162.893 39.6453 163.512 41.7147 163.512 44.232C163.512 47.0053 162.808 49.48 161.4 51.656C160.035 53.8747 158.179 55.6027 155.832 56.84C153.485 58.12 150.84 58.76 147.896 58.76ZM181.408 45.832C178.848 45.832 176.736 45.2133 175.072 43.976C173.45 42.696 172.256 40.9467 171.488 38.728C170.72 36.5093 170.293 33.9707 170.208 31.112C170.122 27.2293 170.656 23.624 171.808 20.296C172.96 16.9253 174.581 13.96 176.672 11.4C178.762 8.84 181.13 6.856 183.776 5.448C185.013 4.808 186.336 4.296 187.744 3.912C189.152 3.48533 190.41 3.29333 191.52 3.336C192.458 3.37866 193.098 3.61333 193.44 4.04C193.781 4.424 193.952 5 193.952 5.768C193.952 6.49333 193.824 7.26133 193.568 8.072C193.354 8.84 193.034 9.50133 192.608 10.056C192.224 10.568 191.754 10.824 191.2 10.824C190.858 10.824 190.56 10.7813 190.304 10.696C190.133 10.6533 189.941 10.632 189.728 10.632C189.514 10.5893 189.237 10.568 188.896 10.568C186.122 10.568 183.584 11.5067 181.28 13.384C178.976 15.2187 177.333 17.7787 176.352 21.064C177.589 20.04 178.869 19.3147 180.192 18.888C181.514 18.4187 182.901 18.184 184.352 18.184C187.594 18.184 190.154 19.2507 192.032 21.384C193.952 23.5173 194.933 26.4827 194.976 30.28C195.018 33.096 194.464 35.6987 193.312 38.088C192.202 40.4347 190.624 42.312 188.576 43.72C186.528 45.128 184.138 45.832 181.408 45.832ZM183.135 39.176C185.269 39.176 186.997 38.5147 188.32 37.192C189.642 35.8267 190.282 34.0773 190.24 31.944C190.197 29.6827 189.45 27.9333 188 26.696C186.549 25.416 184.757 24.776 182.624 24.776C181.258 24.776 179.957 25.032 178.72 25.544C177.525 26.056 176.394 26.7813 175.328 27.72C175.157 29.6827 175.328 31.5387 175.84 33.288C176.394 35.0373 177.29 36.4667 178.528 37.576C179.765 38.6427 181.301 39.176 183.135 39.176ZM215.323 45.832C213.19 45.832 211.142 45.384 209.179 44.488C207.259 43.5493 205.702 42.0987 204.507 40.136C203.312 38.1307 202.715 35.5707 202.715 32.456C202.715 29.3413 203.334 26.5467 204.571 24.072C205.851 21.5973 207.6 19.6347 209.819 18.184C212.08 16.7333 214.683 16.008 217.627 16.008C219.803 16.008 221.851 16.4773 223.771 17.416C225.691 18.312 227.248 19.7413 228.443 21.704C229.638 23.6667 230.235 26.2053 230.235 29.32C230.235 32.4347 229.595 35.2507 228.315 37.768C227.078 40.2427 225.35 42.2053 223.131 43.656C220.912 45.1067 218.31 45.832 215.323 45.832ZM216.603 39.368C218.992 39.3253 221.062 38.5573 222.811 37.064C224.56 35.5707 225.435 33.48 225.435 30.792C225.435 28.9573 224.987 27.4213 224.091 26.184C223.238 24.9467 222.107 24.008 220.699 23.368C219.334 22.6853 217.862 22.3653 216.283 22.408C213.936 22.4507 211.91 23.24 210.203 24.776C208.496 26.312 207.622 28.36 207.579 30.92C207.579 32.7973 208.006 34.376 208.859 35.656C209.712 36.8933 210.822 37.832 212.187 38.472C213.595 39.0693 215.067 39.368 216.603 39.368Z" fill="#8e264e"/>
<path d="M6.336 49.64C5.39733 49.64 4.58667 49.4053 3.904 48.936C3.264 48.424 2.944 47.2507 2.944 45.416C2.944 44.4773 3.02933 43.3467 3.2 42.024C3.41333 40.6587 3.62667 39.2507 3.84 37.8C4.18133 35.752 4.52267 33.512 4.864 31.08C5.20533 28.6053 5.376 26.152 5.376 23.72C5.376 21.16 5.29067 19.1973 5.12 17.832C4.94933 16.4667 4.75733 15.3573 4.544 14.504C4.45867 14.0347 4.37333 13.608 4.288 13.224C4.24533 12.84 4.224 12.4133 4.224 11.944C4.224 10.5787 4.65067 9.55467 5.504 8.872C6.4 8.14666 7.38133 7.784 8.448 7.784C9.51467 7.784 10.4107 8.06133 11.136 8.616C11.8613 9.128 12.5013 9.68267 13.056 10.28C16.7253 14.4187 20.032 18.7707 22.976 23.336C25.92 27.8587 28.3733 32.5093 30.336 37.288C30.5493 37.6293 30.7413 37.8 30.912 37.8C31.168 37.8 31.3387 37.6293 31.424 37.288C32.192 32.296 32.576 27.7733 32.576 23.72C32.576 21.288 32.4693 19.368 32.256 17.96C32.0853 16.5093 31.8507 15.4 31.552 14.632C31.296 13.8213 31.04 13.1813 30.784 12.712C30.656 12.4133 30.5493 12.1573 30.464 11.944C30.3787 11.688 30.336 11.4533 30.336 11.24C30.336 10.728 30.592 10.216 31.104 9.704C31.6587 9.14933 32.32 8.70133 33.088 8.36C33.856 8.01867 34.6027 7.848 35.328 7.848C36.352 7.848 37.0987 8.18933 37.568 8.872C38.0373 9.55467 38.336 10.408 38.464 11.432C38.6347 12.4133 38.72 13.416 38.72 14.44C38.72 15.592 38.6133 17.0853 38.4 18.92C38.1867 20.7547 37.9307 22.7387 37.632 24.872C37.376 26.9627 37.1413 29.032 36.928 31.08C36.7573 33.128 36.672 34.9413 36.672 36.52C36.672 37.416 36.6933 38.2907 36.736 39.144C36.8213 39.9973 36.9067 40.8293 36.992 41.64C37.12 42.7067 37.184 43.6453 37.184 44.456C37.184 46.0347 36.7787 47.2933 35.968 48.232C35.2 49.128 34.1333 49.576 32.768 49.576C31.8293 49.576 30.8907 49.2987 29.952 48.744C29.056 48.1893 28.3733 47.2933 27.904 46.056C26.0693 41.3627 23.808 36.7973 21.12 32.36C18.4747 27.88 15.7013 24.0187 12.8 20.776C12.3307 20.3493 11.9467 20.136 11.648 20.136C11.2213 20.136 10.944 20.6053 10.816 21.544C10.6027 23.1653 10.3893 24.936 10.176 26.856C9.96267 28.776 9.792 30.6533 9.664 32.488C9.536 34.28 9.472 35.816 9.472 37.096C9.472 38.5467 9.6 39.8053 9.856 40.872C10.112 41.896 10.496 42.8987 11.008 43.88C11.4773 44.7333 11.712 45.5013 11.712 46.184C11.712 46.9947 11.2427 47.784 10.304 48.552C9.36533 49.2773 8.04267 49.64 6.336 49.64ZM51.868 49.832C49.308 49.832 47.2387 49.0427 45.66 47.464C44.124 45.8427 43.356 43.5387 43.356 40.552C43.356 38.4187 43.7613 36.3067 44.572 34.216C45.4253 32.0827 46.6413 30.1627 48.22 28.456C49.7987 26.7493 51.6973 25.384 53.916 24.36C56.1347 23.336 58.6307 22.824 61.404 22.824C63.964 22.824 66.14 23.272 67.932 24.168C69.7667 25.0213 70.684 26.1947 70.684 27.688C70.684 28.072 70.6413 28.584 70.556 29.224C70.4707 29.8213 70.364 30.312 70.236 30.696C70.108 31.0373 69.916 31.3573 69.66 31.656C69.4467 31.912 69.148 32.04 68.764 32.04C68.5933 32.04 68.2733 31.976 67.804 31.848C67.6333 32.744 67.5053 33.6187 67.42 34.472C67.3347 35.3253 67.292 36.1787 67.292 37.032C67.292 38.6533 67.5267 40.104 67.996 41.384C68.508 42.6213 69.4893 43.3893 70.94 43.688C71.324 43.7733 71.6227 43.9013 71.836 44.072C72.092 44.2427 72.22 44.6053 72.22 45.16C72.22 45.6293 72.092 46.2267 71.836 46.952C71.6227 47.6773 71.1747 48.3387 70.492 48.936C69.852 49.4907 68.9133 49.768 67.676 49.768C66.012 49.768 64.732 49.1707 63.836 47.976C62.94 46.7387 62.492 44.9893 62.492 42.728C61.34 44.8187 59.868 46.5253 58.076 47.848C56.3267 49.1707 54.2573 49.832 51.868 49.832ZM53.916 43.176C55.6227 43.176 57.116 42.6427 58.396 41.576C59.7187 40.5093 60.7427 39.1653 61.468 37.544C61.9373 36.52 62.3 35.4107 62.556 34.216C62.812 32.9787 62.9827 31.7627 63.068 30.568C62.3427 30.2267 61.5107 29.9493 60.572 29.736C59.6333 29.5227 58.652 29.416 57.628 29.416C55.0253 29.416 52.8707 30.184 51.164 31.72C49.5 33.256 48.668 35.176 48.668 37.48C48.668 39.1867 49.1373 40.5733 50.076 41.64C51.0147 42.664 52.2947 43.176 53.916 43.176ZM85.206 49.896C84.054 49.896 83.0513 49.5547 82.198 48.872C81.3873 48.1467 80.8967 46.824 80.726 44.904C80.6407 43.4533 80.4487 41.8533 80.15 40.104C79.894 38.3547 79.5527 36.6907 79.126 35.112C78.6993 33.5333 78.2087 32.296 77.654 31.4C77.3553 30.9307 77.014 30.5893 76.63 30.376C76.2887 30.12 75.7553 29.9493 75.03 29.864C74.5607 29.8213 74.2407 29.672 74.07 29.416C73.8993 29.16 73.814 28.7547 73.814 28.2C73.814 26.4507 74.2833 25.1707 75.222 24.36C76.2033 23.5067 77.3127 23.08 78.55 23.08C79.83 23.08 80.8967 23.5067 81.75 24.36C82.6033 25.1707 83.2647 26.2587 83.734 27.624C84.2033 28.9893 84.5233 30.504 84.694 32.168C84.9073 33.7893 85.014 35.432 85.014 37.096C85.014 37.7787 84.9927 38.504 84.95 39.272C84.95 39.9973 84.95 40.616 84.95 41.128C84.95 41.5973 85.0353 41.96 85.206 42.216C85.4193 42.472 85.8033 42.6 86.358 42.6C87.0407 42.6 87.83 42.408 88.726 42.024C89.622 41.5973 90.4967 41 91.35 40.232C92.246 39.464 92.9713 38.568 93.526 37.544C94.1233 36.4773 94.422 35.304 94.422 34.024C94.422 33.2987 94.294 32.5307 94.038 31.72C93.8247 30.9093 93.462 30.2267 92.95 29.672C92.438 29.1173 92.054 28.6907 91.798 28.392C91.5847 28.0507 91.478 27.6667 91.478 27.24C91.478 26.472 91.8193 25.768 92.502 25.128C93.2273 24.488 94.0593 23.976 94.998 23.592C95.9793 23.208 96.8327 23.016 97.558 23.016C98.7953 23.016 99.5847 23.528 99.926 24.552C100.267 25.576 100.438 26.7067 100.438 27.944C100.438 30.2907 100.011 32.744 99.158 35.304C98.3047 37.864 97.1527 40.2533 95.702 42.472C94.2513 44.6907 92.6087 46.4827 90.774 47.848C88.982 49.2133 87.126 49.896 85.206 49.896ZM112.807 49.832C110.674 49.832 109.01 49.2133 107.815 47.976C106.663 46.7387 106.087 44.9467 106.087 42.6C106.087 40.936 106.322 39.2293 106.791 37.48C107.004 36.7547 107.175 36.0293 107.303 35.304C107.431 34.5787 107.495 33.8533 107.495 33.128C107.495 31.2507 106.919 30.0347 105.767 29.48C104.658 28.8827 104.103 28.2427 104.103 27.56C104.103 26.8773 104.38 26.1947 104.935 25.512C105.532 24.8293 106.258 24.2747 107.111 23.848C107.964 23.3787 108.818 23.144 109.671 23.144C112.103 23.144 113.319 25.128 113.319 29.096C113.319 30.376 113.212 31.5707 112.999 32.68C112.828 33.7467 112.615 34.7707 112.359 35.752C112.188 36.4347 112.039 37.1173 111.911 37.8C111.826 38.4827 111.783 39.08 111.783 39.592C111.783 41.7253 112.828 42.792 114.919 42.792C116.882 42.792 118.716 41.7467 120.423 39.656C122.13 37.5653 123.538 34.6427 124.647 30.888L124.583 29.672C124.498 27.5387 124.86 25.9173 125.671 24.808C126.524 23.6987 127.762 23.144 129.383 23.144C130.791 23.144 131.495 23.592 131.495 24.488C131.495 24.7867 131.431 25.1707 131.303 25.64C131.218 26.1093 131.068 26.664 130.855 27.304C130.428 28.8827 130.066 30.568 129.767 32.36C129.468 34.1093 129.319 35.7307 129.319 37.224C129.319 38.888 129.575 40.2747 130.087 41.384C130.599 42.4507 131.559 43.176 132.967 43.56C133.351 43.6027 133.65 43.7307 133.863 43.944C134.119 44.1147 134.247 44.4987 134.247 45.096C134.247 46.12 133.82 47.1227 132.967 48.104C132.114 49.0853 130.876 49.576 129.255 49.576C126.14 49.576 124.583 47.3787 124.583 42.984C124.583 42.216 124.647 41.064 124.775 39.528L124.647 39.464C121.959 46.376 118.012 49.832 112.807 49.832Z" fill="white"/>
</svg>
