<svg width="210" height="222" viewBox="0 0 210 222" fill="none" xmlns="http://www.w3.org/2000/svg">
<path d="M33.264 221.36C28.336 221.36 24.08 220.128 20.496 217.664C17.136 214.976 15.456 208.816 15.456 199.184C15.456 194.256 15.904 188.32 16.8 181.376C17.92 174.208 19.04 166.816 20.16 159.2C21.952 148.448 23.744 136.688 25.536 123.92C27.328 110.928 28.224 98.048 28.224 85.28C28.224 71.84 27.776 61.536 26.88 54.368C25.984 47.2 24.976 41.376 23.856 36.896C23.408 34.432 22.96 32.192 22.512 30.176C22.288 28.16 22.176 25.92 22.176 23.456C22.176 16.288 24.416 10.912 28.896 7.32799C33.6 3.51998 38.752 1.61598 44.352 1.61598C49.952 1.61598 54.656 3.07198 58.464 5.98399C62.272 8.67199 65.632 11.584 68.544 14.72C87.808 36.448 105.168 59.296 120.624 83.264C136.08 107.008 148.96 131.424 159.264 156.512C160.384 158.304 161.392 159.2 162.288 159.2C163.632 159.2 164.528 158.304 164.976 156.512C169.008 130.304 171.024 106.56 171.024 85.28C171.024 72.512 170.464 62.432 169.344 55.04C168.448 47.424 167.216 41.6 165.648 37.568C164.304 33.312 162.96 29.952 161.616 27.488C160.944 25.92 160.384 24.576 159.936 23.456C159.488 22.112 159.264 20.88 159.264 19.76C159.264 17.072 160.608 14.384 163.296 11.696C166.208 8.78399 169.68 6.43199 173.712 4.63998C177.744 2.84799 181.664 1.952 185.472 1.952C190.848 1.952 194.768 3.74399 197.232 7.32799C199.696 10.912 201.264 15.392 201.936 20.768C202.832 25.92 203.28 31.184 203.28 36.56C203.28 42.608 202.72 50.448 201.6 60.08C200.48 69.712 199.136 80.128 197.568 91.328C196.224 102.304 194.992 113.168 193.872 123.92C192.976 134.672 192.528 144.192 192.528 152.48C192.528 157.184 192.64 161.776 192.864 166.256C193.312 170.736 193.76 175.104 194.208 179.36C194.88 184.96 195.216 189.888 195.216 194.144C195.216 202.432 193.088 209.04 188.832 213.968C184.8 218.672 179.2 221.024 172.032 221.024C167.104 221.024 162.176 219.568 157.248 216.656C152.544 213.744 148.96 209.04 146.496 202.544C136.864 177.904 124.992 153.936 110.88 130.64C96.992 107.12 82.432 86.848 67.2 69.824C64.736 67.584 62.72 66.464 61.152 66.464C58.912 66.464 57.456 68.928 56.784 73.856C55.664 82.368 54.544 91.664 53.424 101.744C52.304 111.824 51.408 121.68 50.736 131.312C50.064 140.72 49.728 148.784 49.728 155.504C49.728 163.12 50.4 169.728 51.744 175.328C53.088 180.704 55.104 185.968 57.792 191.12C60.256 195.6 61.488 199.632 61.488 203.216C61.488 207.472 59.024 211.616 54.096 215.648C49.168 219.456 42.224 221.36 33.264 221.36Z" fill="#30475E"/>
</svg>
